<?xml version="1.0" standalone="no"?>
<!DOCTYPE svg PUBLIC "-//W3C//DTD SVG 20010904//EN"
 "http://www.w3.org/TR/2001/REC-SVG-20010904/DTD/svg10.dtd">
<svg version="1.0" xmlns="http://www.w3.org/2000/svg"
 width="512.000000pt" height="512.000000pt" viewBox="0 0 512.000000 512.000000"
 preserveAspectRatio="xMidYMid meet">
<metadata>
Created by potrace 1.14, written by Peter Selinger 2001-2017
</metadata>
<g transform="translate(0.000000,512.000000) scale(0.100000,-0.100000)"
fill="#000000" stroke="none">
<path d="M2408 5115 c-3 -3 -36 -7 -74 -10 -60 -4 -183 -20 -239 -31 -11 -2
-32 -6 -47 -9 -224 -41 -533 -158 -755 -285 -89 -52 -295 -189 -313 -209 -3
-3 -27 -24 -55 -45 -27 -22 -106 -96 -175 -165 -229 -230 -383 -452 -521 -753
-46 -101 -126 -325 -135 -378 -3 -14 -9 -36 -14 -50 -20 -56 -49 -230 -68
-405 -9 -92 -9 -328 1 -435 22 -241 79 -487 164 -705 32 -81 129 -288 153
-325 5 -8 33 -53 61 -100 88 -145 219 -310 349 -441 106 -107 156 -152 270
-243 155 -123 392 -255 622 -347 159 -63 303 -102 528 -144 17 -3 91 -12 170
-22 124 -14 449 -7 561 12 13 2 67 11 119 20 280 48 602 165 840 308 57 34
198 126 217 141 10 8 54 43 98 77 190 149 426 415 565 638 141 227 256 502
316 756 8 39 18 79 21 90 2 11 6 34 9 50 2 17 9 58 15 93 29 182 32 590 4 692
-2 8 -6 35 -9 60 -48 371 -233 813 -479 1140 -94 125 -110 144 -252 285 -351
351 -769 577 -1267 685 -73 15 -160 31 -193 35 -33 3 -73 8 -90 11 -45 7 -391
14 -397 9z"/>
</g>
</svg>
